# 3ds Max Wavefront OBJ Exporter v0.97b - (c)2007 guruware
# File Created: 16.09.2015 13:07:46

mtllib StadiumBaseNOUV.mtl

#
# object StadiumShape
#

v  146.7181 7.9757 -0.0000
v  146.0504 7.9757 -14.7160
v  146.0504 0.0000 -14.7160
v  146.7181 0.0000 -0.0000
v  144.1434 7.9757 -28.3160
v  144.1434 0.0000 -28.3160
v  141.1409 7.9757 -40.4534
v  141.1409 0.0000 -40.4534
v  137.1866 7.9757 -50.7818
v  137.1866 0.0000 -50.7818
v  132.4246 7.9757 -58.9549
v  132.4246 0.0000 -58.9549
v  126.9986 7.9757 -64.6263
v  126.9986 0.0000 -64.6263
v  121.0525 7.9757 -67.4494
v  121.0525 0.0000 -67.4494
v  -121.0379 7.9757 -67.4494
v  -121.0379 0.0000 -67.4494
v  -126.9840 7.9757 -64.6263
v  -126.9840 0.0000 -64.6263
v  -132.4100 7.9757 -58.9549
v  -132.4100 0.0000 -58.9549
v  -137.1720 7.9757 -50.7818
v  -137.1720 0.0000 -50.7818
v  -141.1263 7.9757 -40.4534
v  -141.1263 0.0000 -40.4534
v  -144.1288 7.9757 -28.3159
v  -144.1288 0.0000 -28.3159
v  -146.0359 7.9757 -14.7160
v  -146.0359 0.0000 -14.7160
v  -146.7035 7.9757 0.0000
v  -146.7035 0.0000 0.0000
v  -146.0359 7.9757 14.7160
v  -146.0359 0.0000 14.7160
v  -144.1288 7.9757 28.3160
v  -144.1288 0.0000 28.3160
v  -141.1263 7.9757 40.4534
v  -141.1263 0.0000 40.4534
v  -137.1720 7.9757 50.7818
v  -137.1720 0.0000 50.7818
v  -132.4100 7.9757 58.9549
v  -132.4100 0.0000 58.9549
v  -126.9840 7.9757 64.6263
v  -126.9840 0.0000 64.6263
v  -121.0379 7.9757 67.4494
v  -121.0379 0.0000 67.4494
v  121.0525 7.9757 67.4494
v  126.9986 7.9757 64.6263
v  126.9986 0.0000 64.6263
v  121.0525 0.0000 67.4494
v  132.4246 7.9757 58.9549
v  132.4246 0.0000 58.9549
v  137.1866 7.9757 50.7818
v  137.1866 0.0000 50.7818
v  141.1409 7.9757 40.4534
v  141.1409 0.0000 40.4534
v  144.1434 7.9757 28.3160
v  144.1434 0.0000 28.3160
v  146.0504 7.9757 14.7160
v  146.0504 0.0000 14.7160
v  39.4164 -4.0815 4.3846
v  39.6040 -4.0815 -0.0000
v  39.4163 -4.0815 -4.3846
v  37.8804 -4.0815 12.1557
v  -39.5894 -4.0815 0.0000
v  -39.4017 -4.0815 4.3846
v  -37.8658 -4.0815 12.1557
v  -39.4017 -4.0815 -4.3846
v  -37.8657 -4.0815 -12.1557
v  37.8804 -4.0815 -12.1557
v  147.2349 8.5058 0.0000
v  149.8121 8.5717 0.0000
v  149.1360 8.5722 -16.0821
v  146.5230 8.5048 -14.9253
v  147.1952 8.5733 -30.9718
v  144.5333 8.5029 -28.6553
v  144.1133 8.5746 -44.3034
v  141.4567 8.5013 -40.8625
v  140.0141 8.5752 -55.6533
v  137.4461 8.5002 -51.2289
v  135.0258 8.5744 -64.5566
v  132.6423 8.4995 -59.4238
v  129.2778 8.5710 -70.5150
v  127.1852 8.4990 -65.1083
v  122.9017 8.5641 -73.0560
v  121.2144 8.4989 -67.9403
v  -122.8871 8.5641 -73.0560
v  -121.1998 8.4989 -67.9403
v  -129.2632 8.5710 -70.5150
v  -127.1706 8.4990 -65.1083
v  -135.0112 8.5744 -64.5566
v  -132.6277 8.4995 -59.4238
v  -139.9995 8.5752 -55.6533
v  -137.4315 8.5002 -51.2289
v  -144.0987 8.5746 -44.3034
v  -141.4421 8.5013 -40.8625
v  -147.1806 8.5733 -30.9718
v  -144.5187 8.5029 -28.6552
v  -149.1214 8.5722 -16.0821
v  -146.5084 8.5048 -14.9252
v  -149.7975 8.5717 0.0000
v  -147.2203 8.5058 0.0000
v  -149.1214 8.5722 16.0821
v  -146.5084 8.5048 14.9253
v  -147.1806 8.5733 30.9718
v  -144.5187 8.5029 28.6553
v  -144.0987 8.5746 44.3034
v  -141.4421 8.5013 40.8625
v  -139.9995 8.5752 55.6533
v  -137.4315 8.5002 51.2289
v  -135.0112 8.5744 64.5566
v  -132.6277 8.4995 59.4238
v  -129.2632 8.5710 70.5150
v  -127.1706 8.4990 65.1083
v  -122.8871 8.5641 73.0560
v  -121.1998 8.4989 67.9403
v  122.9017 8.5641 73.0560
v  129.2778 8.5710 70.5150
v  127.1852 8.4990 65.1083
v  121.2144 8.4989 67.9403
v  135.0258 8.5744 64.5566
v  132.6423 8.4995 59.4238
v  140.0141 8.5752 55.6533
v  137.4461 8.5002 51.2289
v  144.1133 8.5746 44.3034
v  141.4567 8.5013 40.8625
v  147.1952 8.5733 30.9718
v  144.5333 8.5029 28.6553
v  149.1360 8.5722 16.0821
v  146.5230 8.5048 14.9252
v  149.0856 -0.7004 -15.9237
v  149.7707 -0.7004 0.0000
v  147.1306 -0.7004 -30.6223
v  144.0517 -0.7004 -43.7455
v  139.9953 -0.7004 -54.9176
v  135.1114 -0.7004 -63.7564
v  129.5495 -0.7004 -69.8853
v  123.4294 -0.7005 -72.9393
v  -123.4148 -0.7005 -72.9393
v  -129.5349 -0.7004 -69.8853
v  -135.0968 -0.7004 -63.7564
v  -139.9808 -0.7004 -54.9176
v  -144.0371 -0.7004 -43.7455
v  -147.1160 -0.7004 -30.6222
v  -149.0710 -0.7004 -15.9237
v  -149.7561 -0.7004 0.0000
v  -149.0710 -0.7004 15.9237
v  -147.1161 -0.7004 30.6223
v  -144.0370 -0.7004 43.7455
v  -139.9808 -0.7004 54.9176
v  -135.0968 -0.7004 63.7564
v  -129.5349 -0.7004 69.8853
v  -123.4148 -0.7005 72.9393
v  129.5495 -0.7004 69.8853
v  123.4294 -0.7005 72.9393
v  135.1114 -0.7004 63.7564
v  139.9953 -0.7004 54.9176
v  144.0517 -0.7004 43.7455
v  147.1306 -0.7004 30.6223
v  149.0856 -0.7004 15.9237
v  6.8877 0.0000 67.4494
v  6.8877 7.9757 67.4494
v  -6.8877 7.9757 67.4494
v  -6.8877 0.0000 67.4494
v  10.1851 8.5641 73.0560
v  6.6615 8.4981 67.8768
v  -10.1850 8.5641 73.0560
v  -6.6615 8.4981 67.8768
v  10.1851 -0.7005 72.9393
v  -10.1850 -0.7005 73.0560
v  -6.3707 -0.0153 67.9662
v  -6.3707 7.9757 67.9664
v  -6.3707 7.9757 80.6161
v  -6.3707 17.3204 95.9272
v  -6.3707 -1.2237 108.7794
v  -10.1850 8.5284 80.4708
v  -6.8877 8.4975 80.4708
v  -10.1850 -1.2390 109.2961
v  -10.1850 18.0169 96.0761
v  6.3708 7.9757 67.9664
v  6.3708 -0.0153 67.9662
v  6.3708 -1.2237 108.7794
v  6.3708 7.9757 80.6161
v  6.3708 17.3204 95.9272
v  10.1851 8.5284 80.4708
v  10.1851 18.0169 96.0761
v  10.1851 -1.2390 109.2961
v  6.8877 8.4975 80.4708
v  -6.8877 18.0169 96.0761
v  6.8877 18.0169 96.0761
v  5.8538 0.0000 67.4494
v  -5.8538 -1.2390 109.2961
v  -5.8538 0.0000 67.4494
v  5.8538 -1.2390 109.2961
v  -6.8877 -1.2390 109.2961
v  6.8877 -1.2390 109.2961
v  130.9267 -1.3411 -14.1402
v  131.5319 -1.3411 -0.0000
v  129.2296 -1.3411 -26.9678
v  126.6604 -1.3411 -37.9757
v  123.5547 -1.3411 -46.5739
v  120.5259 -1.3411 -52.0837
v  119.4822 -1.3411 -53.6508
v  -119.4676 -1.3411 -53.6508
v  -120.5113 -1.3411 -52.0837
v  -123.5401 -1.3411 -46.5739
v  -126.6458 -1.3411 -37.9757
v  -129.2150 -1.3411 -26.9678
v  -130.9121 -1.3411 -14.1402
v  -131.5173 -1.3411 0.0000
v  -130.9121 -1.3411 14.1402
v  -129.2150 -1.3411 26.9678
v  -126.6458 -1.3411 37.9757
v  -123.5401 -1.3411 46.5739
v  -120.5113 -1.3411 52.0837
v  -119.4676 -1.3411 53.6508
v  -6.8838 -0.0061 67.3868
v  6.8839 -0.0061 67.3868
v  119.4822 -1.3411 53.6508
v  120.5259 -1.3411 52.0837
v  123.5547 -1.3411 46.5739
v  126.6604 -1.3411 37.9757
v  129.2296 -1.3411 26.9678
v  130.9267 -1.3411 14.1402
# 224 vertices

vn -1.0000 0.0000 -0.0000
vn -0.9957 0.0000 0.0922
vn -0.9818 0.0000 0.1898
vn -0.9541 0.0000 0.2994
vn -0.9019 0.0000 0.4319
vn -0.7988 0.0000 0.6015
vn -0.5854 0.0000 0.8107
vn -0.2198 0.0000 0.9755
vn 0.2198 0.0000 0.9755
vn 0.5854 0.0000 0.8107
vn 0.7988 0.0000 0.6015
vn 0.9019 0.0000 0.4319
vn 0.9541 0.0000 0.2994
vn 0.9818 0.0000 0.1898
vn 0.9957 0.0000 0.0922
vn 1.0000 0.0000 0.0000
vn 0.9957 0.0000 -0.0922
vn 0.9818 0.0000 -0.1898
vn 0.9541 0.0000 -0.2994
vn 0.9019 0.0000 -0.4319
vn 0.7988 0.0000 -0.6015
vn 0.5854 0.0000 -0.8107
vn 0.2198 0.0000 -0.9755
vn -0.2198 0.0000 -0.9755
vn -0.5854 0.0000 -0.8107
vn -0.7988 0.0000 -0.6015
vn -0.9019 0.0000 -0.4319
vn -0.9541 0.0000 -0.2994
vn -0.9818 0.0000 -0.1898
vn -0.9957 0.0000 -0.0922
vn -0.0154 0.9999 -0.0018
vn -0.0153 0.9999 0.0000
vn -0.0155 0.9999 0.0019
vn -0.0085 0.9995 -0.0299
vn 0.0153 0.9999 0.0000
vn 0.0155 0.9999 -0.0019
vn 0.0085 0.9995 -0.0299
vn 0.0154 0.9999 0.0018
vn 0.0085 0.9995 0.0299
vn -0.0085 0.9995 0.0299
vn -0.0255 0.9997 -0.0000
vn -0.0256 0.9997 -0.0000
vn -0.0247 0.9997 0.0024
vn -0.0249 0.9997 0.0020
vn -0.0225 0.9997 0.0046
vn -0.0230 0.9997 0.0039
vn -0.0194 0.9998 0.0063
vn -0.0201 0.9998 0.0057
vn -0.0158 0.9998 0.0078
vn -0.0167 0.9998 0.0072
vn -0.0118 0.9999 0.0092
vn -0.0127 0.9999 0.0086
vn -0.0075 0.9999 0.0105
vn -0.0080 0.9999 0.0102
vn -0.0029 0.9999 0.0118
vn -0.0025 0.9999 0.0119
vn 0.0029 0.9999 0.0118
vn 0.0025 0.9999 0.0119
vn 0.0075 0.9999 0.0105
vn 0.0080 0.9999 0.0102
vn 0.0118 0.9999 0.0092
vn 0.0127 0.9999 0.0086
vn 0.0158 0.9998 0.0078
vn 0.0167 0.9998 0.0072
vn 0.0194 0.9998 0.0063
vn 0.0201 0.9998 0.0057
vn 0.0225 0.9997 0.0046
vn 0.0230 0.9997 0.0039
vn 0.0247 0.9997 0.0024
vn 0.0249 0.9997 0.0020
vn 0.0255 0.9997 0.0000
vn 0.0247 0.9997 -0.0024
vn 0.0249 0.9997 -0.0020
vn 0.0225 0.9997 -0.0046
vn 0.0230 0.9997 -0.0039
vn 0.0194 0.9998 -0.0063
vn 0.0201 0.9998 -0.0057
vn 0.0158 0.9998 -0.0078
vn 0.0167 0.9998 -0.0072
vn 0.0118 0.9999 -0.0092
vn 0.0127 0.9999 -0.0086
vn 0.0075 0.9999 -0.0105
vn 0.0080 0.9999 -0.0102
vn 0.0029 0.9999 -0.0118
vn 0.0025 0.9999 -0.0119
vn -0.0029 0.9999 -0.0118
vn -0.0075 0.9999 -0.0105
vn -0.0080 0.9999 -0.0102
vn -0.0025 0.9999 -0.0119
vn -0.0118 0.9999 -0.0092
vn -0.0127 0.9999 -0.0086
vn -0.0158 0.9998 -0.0078
vn -0.0167 0.9998 -0.0072
vn -0.0194 0.9998 -0.0063
vn -0.0201 0.9998 -0.0057
vn -0.0225 0.9997 -0.0046
vn -0.0230 0.9997 -0.0039
vn -0.0247 0.9997 -0.0024
vn -0.0249 0.9997 -0.0020
vn 0.9962 -0.0066 -0.0867
vn 0.9962 -0.0077 -0.0870
vn 1.0000 -0.0048 -0.0003
vn 0.9839 -0.0128 -0.1784
vn 0.9836 -0.0145 -0.1795
vn 0.9591 -0.0224 -0.2823
vn 0.9581 -0.0240 -0.2854
vn 0.9116 -0.0339 -0.4098
vn 0.9082 -0.0333 -0.4173
vn 0.8149 -0.0439 -0.5780
vn 0.8029 -0.0362 -0.5950
vn 0.6035 -0.0441 -0.7962
vn 0.5649 -0.0200 -0.8249
vn 0.2206 -0.0193 -0.9752
vn 0.1817 -0.0020 -0.9834
vn -0.2376 0.0013 -0.9714
vn -0.1977 -0.0191 -0.9801
vn -0.5967 -0.0190 -0.8022
vn -0.5557 -0.0473 -0.8301
vn -0.8122 -0.0357 -0.5823
vn -0.7991 -0.0458 -0.5995
vn -0.9108 -0.0330 -0.4116
vn -0.9072 -0.0346 -0.4192
vn -0.9589 -0.0238 -0.2828
vn -0.9580 -0.0227 -0.2859
vn -0.9839 -0.0145 -0.1783
vn -0.9837 -0.0129 -0.1793
vn -0.9962 -0.0076 -0.0862
vn -0.9962 -0.0066 -0.0865
vn -1.0000 -0.0048 0.0003
vn -1.0000 -0.0047 0.0003
vn -0.9962 -0.0066 0.0867
vn -0.9962 -0.0077 0.0870
vn -0.9839 -0.0128 0.1784
vn -0.9836 -0.0145 0.1795
vn -0.9591 -0.0224 0.2823
vn -0.9581 -0.0240 0.2854
vn -0.9116 -0.0339 0.4098
vn -0.9082 -0.0333 0.4173
vn -0.8149 -0.0439 0.5780
vn -0.8029 -0.0362 0.5950
vn -0.6035 -0.0441 0.7962
vn -0.5649 -0.0200 0.8249
vn -0.2211 -0.0193 0.9751
vn -0.1822 -0.0017 0.9833
vn 0.5967 -0.0190 0.8022
vn 0.5557 -0.0473 0.8301
vn 0.1977 -0.0191 0.9801
vn 0.2376 0.0013 0.9714
vn 0.8122 -0.0357 0.5823
vn 0.7991 -0.0458 0.5995
vn 0.9108 -0.0330 0.4116
vn 0.9072 -0.0346 0.4192
vn 0.9589 -0.0238 0.2828
vn 0.9580 -0.0227 0.2859
vn 0.9839 -0.0145 0.1783
vn 0.9837 -0.0129 0.1793
vn 0.9962 -0.0076 0.0862
vn 0.9962 -0.0066 0.0865
vn 0.0000 0.0000 -1.0000
vn -0.0095 0.9999 -0.0053
vn 0.0000 0.9999 -0.0128
vn 1.0000 0.0000 -0.0000
vn 0.0095 0.9999 -0.0053
vn -0.0000 0.9999 -0.0128
vn 0.0193 0.9998 0.0004
vn -0.0000 -0.0126 0.9999
vn 0.0000 -0.0126 0.9999
vn -0.0001 -0.0007 1.0000
vn 0.0000 0.0000 1.0000
vn 0.0094 0.9999 0.0048
vn 0.0121 0.9999 0.0036
vn -1.0000 -0.0000 0.0000
vn -1.0000 0.0000 0.0000
vn -0.0193 0.9998 0.0004
vn -0.0121 0.9999 0.0036
vn -0.0094 0.9999 0.0048
vn 0.0071 0.8538 -0.5206
vn 0.0000 0.8544 -0.5195
vn 0.0009 0.8544 -0.5197
vn 0.0080 0.8537 -0.5208
vn -0.0009 0.8544 -0.5197
vn -0.0000 0.8544 -0.5195
vn -0.0071 0.8538 -0.5206
vn -0.0080 0.8537 -0.5208
vn -0.0000 0.9996 0.0296
vn 0.0000 0.9996 0.0296
vn -0.0000 0.9994 -0.0336
vn 0.0000 0.9994 -0.0336
vn 0.0000 0.5660 0.8244
vn -0.0880 0.9961 -0.0001
vn -0.0882 0.9961 0.0079
vn -0.0596 0.9982 0.0053
vn -0.0597 0.9982 -0.0000
vn -0.0883 0.9960 0.0166
vn -0.0595 0.9982 0.0111
vn -0.0880 0.9958 0.0268
vn -0.0590 0.9981 0.0179
vn -0.0859 0.9955 0.0401
vn -0.0577 0.9980 0.0266
vn -0.0797 0.9951 0.0582
vn -0.0548 0.9979 0.0335
vn -0.0585 0.9950 0.0815
vn -0.0347 0.9975 0.0608
vn -0.0200 0.9953 0.0945
vn 0.0200 0.9953 0.0945
vn 0.0381 0.9974 0.0611
vn 0.0584 0.9951 0.0802
vn 0.0784 0.9953 0.0576
vn 0.0559 0.9978 0.0358
vn 0.0853 0.9956 0.0397
vn 0.0581 0.9979 0.0269
vn 0.0874 0.9958 0.0267
vn 0.0594 0.9981 0.0180
vn 0.0879 0.9960 0.0165
vn 0.0597 0.9982 0.0112
vn 0.0880 0.9961 0.0080
vn 0.0598 0.9982 0.0054
vn 0.0880 0.9961 0.0001
vn 0.0597 0.9982 0.0000
vn 0.0882 0.9961 -0.0079
vn 0.0596 0.9982 -0.0053
vn 0.0883 0.9960 -0.0166
vn 0.0595 0.9982 -0.0111
vn 0.0880 0.9958 -0.0268
vn 0.0590 0.9981 -0.0179
vn 0.0859 0.9955 -0.0401
vn 0.0577 0.9980 -0.0266
vn 0.0797 0.9951 -0.0582
vn 0.0548 0.9979 -0.0335
vn 0.0585 0.9950 -0.0815
vn 0.0347 0.9975 -0.0608
vn 0.0200 0.9953 -0.0945
vn 0.0000 0.9974 -0.0716
vn 0.0000 0.9953 -0.0967
vn -0.0381 0.9974 -0.0611
vn -0.0200 0.9953 -0.0945
vn -0.0584 0.9951 -0.0802
vn -0.0784 0.9953 -0.0576
vn -0.0559 0.9978 -0.0358
vn -0.0853 0.9956 -0.0397
vn -0.0581 0.9979 -0.0269
vn -0.0874 0.9958 -0.0267
vn -0.0594 0.9981 -0.0180
vn -0.0879 0.9960 -0.0165
vn -0.0597 0.9982 -0.0112
vn -0.0880 0.9961 -0.0080
vn -0.0598 0.9982 -0.0054
vn -0.7070 0.0000 -0.7073
vn -0.7028 0.1097 -0.7029
vn -0.7040 0.0940 -0.7040
vn 0.7040 0.0940 -0.7040
vn 0.7028 0.1097 -0.7028
vn 0.7070 0.0000 -0.7073
vn -0.7164 0.6977 0.0008
vn -0.7164 0.6976 0.0008
vn -0.7287 0.6808 0.0741
vn -0.7323 0.6780 0.0641
vn -0.7435 0.6507 0.1545
vn -0.7528 0.6437 0.1373
vn -0.7343 0.6332 0.2448
vn -0.7500 0.6229 0.2226
vn -0.6875 0.6375 0.3477
vn -0.7107 0.6254 0.3221
vn -0.5876 0.6618 0.4655
vn -0.6184 0.6508 0.4405
vn -0.4111 0.6928 0.5924
vn -0.4381 0.6885 0.5780
vn -0.1625 0.7015 0.6939
vn -0.1491 0.7007 0.6977
vn 0.1624 0.7014 0.6940
vn 0.1489 0.7008 0.6977
vn 0.4110 0.6925 0.5929
vn 0.4374 0.6889 0.5780
vn 0.5882 0.6610 0.4660
vn 0.6173 0.6518 0.4406
vn 0.6885 0.6363 0.3479
vn 0.7092 0.6269 0.3226
vn 0.7357 0.6315 0.2449
vn 0.7482 0.6248 0.2233
vn 0.7451 0.6488 0.1543
vn 0.7511 0.6456 0.1379
vn 0.7301 0.6795 0.0732
vn 0.7314 0.6790 0.0636
vn 0.7164 0.6976 -0.0008
vn 0.7164 0.6977 -0.0008
vn 0.7287 0.6808 -0.0741
vn 0.7323 0.6780 -0.0641
vn 0.7435 0.6506 -0.1545
vn 0.7529 0.6437 -0.1373
vn 0.7343 0.6332 -0.2448
vn 0.7500 0.6229 -0.2226
vn 0.6875 0.6375 -0.3477
vn 0.7107 0.6254 -0.3221
vn 0.5876 0.6618 -0.4655
vn 0.6184 0.6508 -0.4405
vn 0.4111 0.6928 -0.5924
vn 0.4381 0.6885 -0.5780
vn 0.1623 0.7015 -0.6940
vn 0.1489 0.7006 -0.6978
vn -0.1489 0.7008 -0.6977
vn -0.1624 0.7013 -0.6941
vn -0.4110 0.6925 -0.5929
vn -0.4374 0.6889 -0.5780
vn -0.5882 0.6610 -0.4660
vn -0.6173 0.6517 -0.4406
vn -0.6885 0.6363 -0.3479
vn -0.7092 0.6269 -0.3226
vn -0.7357 0.6315 -0.2449
vn -0.7482 0.6248 -0.2233
vn -0.7451 0.6488 -0.1543
vn -0.7511 0.6456 -0.1379
vn -0.7301 0.6795 -0.0732
vn -0.7314 0.6790 -0.0636
vn 0.0004 0.6335 -0.7737
vn 0.0004 0.6333 -0.7739
vn -0.0000 0.6335 -0.7738
vn 0.0000 0.6332 -0.7740
vn 0.8680 0.4963 0.0152
vn 0.8725 0.4883 0.0157
vn 0.7259 0.6617 -0.1874
vn 0.7234 0.6648 -0.1866
vn 0.7072 0.6035 -0.3683
vn 0.7071 0.6036 -0.3684
vn 0.7061 0.4008 0.5838
vn 0.7071 0.4002 0.5829
vn 0.6293 0.4426 0.6388
vn 0.6269 0.4438 0.6403
vn -0.6295 0.4398 0.6406
vn -0.6282 0.4404 0.6415
vn -0.7063 0.4031 0.5819
vn -0.7086 0.4019 0.5800
vn -0.7072 0.6035 -0.3682
vn -0.7072 0.6036 -0.3682
vn -0.7234 0.6662 -0.1815
vn -0.7266 0.6629 -0.1805
vn -0.8684 0.4959 0.0005
vn -0.8738 0.4863 -0.0000
vn 0.6822 0.2628 -0.6823
vn -0.6822 0.2628 -0.6823
# 339 vertex normals

g StadiumShape
usemtl 02___Default
s 1
f 1//1 2//2 3//2 4//1 
f 2//2 5//3 6//3 3//2 
f 5//3 7//4 8//4 6//3 
f 7//4 9//5 10//5 8//4 
f 9//5 11//6 12//6 10//5 
f 11//6 13//7 14//7 12//6 
f 13//7 15//8 16//8 14//7 
f 15//8 17//9 18//9 16//8 
f 17//9 19//10 20//10 18//9 
f 19//10 21//11 22//11 20//10 
f 21//11 23//12 24//12 22//11 
f 23//12 25//13 26//13 24//12 
f 25//13 27//14 28//14 26//13 
f 27//14 29//15 30//15 28//14 
f 29//15 31//16 32//16 30//15 
f 31//16 33//17 34//17 32//16 
f 33//17 35//18 36//18 34//17 
f 35//18 37//19 38//19 36//18 
f 37//19 39//20 40//20 38//19 
f 39//20 41//21 42//21 40//20 
f 41//21 43//22 44//22 42//21 
f 43//22 45//23 46//23 44//22 
f 47//24 48//25 49//25 50//24 
f 48//25 51//26 52//26 49//25 
f 51//26 53//27 54//27 52//26 
f 53//27 55//28 56//28 54//27 
f 55//28 57//29 58//29 56//28 
f 57//29 59//30 60//30 58//29 
f 59//30 1//1 4//1 60//30 
s 2
f 61//31 62//32 63//33 64//34 
f 65//35 66//36 67//37 68//38 
f 69//39 68//38 67//37 70//40 
f 70//40 67//37 64//34 63//33 
s 1
f 71//41 72//42 73//43 74//44 
f 74//44 73//43 75//45 76//46 
f 76//46 75//45 77//47 78//48 
f 78//48 77//47 79//49 80//50 
f 80//50 79//49 81//51 82//52 
f 82//52 81//51 83//53 84//54 
f 84//54 83//53 85//55 86//56 
f 85//55 87//57 88//58 86//56 
f 87//57 89//59 90//60 88//58 
f 89//59 91//61 92//62 90//60 
f 91//61 93//63 94//64 92//62 
f 93//63 95//65 96//66 94//64 
f 95//65 97//67 98//68 96//66 
f 97//67 99//69 100//70 98//68 
f 99//69 101//71 102//71 100//70 
f 102//71 101//71 103//72 104//73 
f 104//73 103//72 105//74 106//75 
f 106//75 105//74 107//76 108//77 
f 108//77 107//76 109//78 110//79 
f 110//79 109//78 111//80 112//81 
f 112//81 111//80 113//82 114//83 
f 114//83 113//82 115//84 116//85 
f 117//86 118//87 119//88 120//89 
f 118//87 121//90 122//91 119//88 
f 121//90 123//92 124//93 122//91 
f 123//92 125//94 126//95 124//93 
f 125//94 127//96 128//97 126//95 
f 127//96 129//98 130//99 128//97 
f 129//98 72//42 71//41 130//99 
s 2
f 131//100 73//101 72//102 132//102 
f 133//103 75//104 73//101 131//100 
f 134//105 77//106 75//104 133//103 
f 135//107 79//108 77//106 134//105 
f 136//109 81//110 79//108 135//107 
f 137//111 83//112 81//110 136//109 
f 138//113 85//114 83//112 137//111 
f 139//115 87//116 85//114 138//113 
f 140//117 89//118 87//116 139//115 
f 141//119 91//120 89//118 140//117 
f 142//121 93//122 91//120 141//119 
f 143//123 95//124 93//122 142//121 
f 144//125 97//126 95//124 143//123 
f 145//127 99//128 97//126 144//125 
f 146//129 101//130 99//128 145//127 
f 147//131 103//132 101//130 146//129 
f 148//133 105//134 103//132 147//131 
f 149//135 107//136 105//134 148//133 
f 150//137 109//138 107//136 149//135 
f 151//139 111//140 109//138 150//137 
f 152//141 113//142 111//140 151//139 
f 153//143 115//144 113//142 152//141 
f 154//145 118//146 117//147 155//148 
f 156//149 121//150 118//146 154//145 
f 157//151 123//152 121//150 156//149 
f 158//153 125//154 123//152 157//151 
f 159//155 127//156 125//154 158//153 
f 160//157 129//158 127//156 159//155 
f 132//102 72//102 129//158 160//157 
s 1
f 47//24 50//24 161//159 162//159 
f 46//23 45//23 163//159 164//159 
f 165//160 117//86 120//89 166//161 
f 120//89 166//162 166//161 
f 116//85 115//84 167//163 168//164 
f 168//165 168//164 167//163 
s 2
f 169//166 155//148 117//147 165//167 
f 115//144 153//143 170//168 167//169 
s 1
f 171//162 172//162 173//162 174//162 
f 171//162 174//162 175//162 
f 167//163 176//170 177//171 168//165 
f 168//162 168//165 177//171 
s 4
f 167//1 170//1 178//1 176//1 
f 178//1 179//1 176//1 
s 1
f 180//172 181//172 182//173 183//172 
f 182//173 184//173 183//172 
s 4
f 169//162 165//162 185//162 186//162 
f 169//162 186//162 187//162 
s 1
f 165//160 166//161 166//174 188//175 
f 165//160 188//175 185//176 
s 2
f 176//177 179//178 189//179 177//180 
f 190//181 186//182 185//183 188//184 
f 182//185 181//186 191//187 192//185 
f 191//187 193//188 171//185 192//185 
f 171//185 175//185 192//185 
f 194//185 182//185 192//185 
s 1
f 178//189 195//189 189//189 179//189 
f 186//189 190//189 196//189 187//189 
s 2
f 4//190 3//191 197//192 198//193 
f 3//191 6//194 199//195 197//192 
f 6//194 8//196 200//197 199//195 
f 8//196 10//198 201//199 200//197 
f 10//198 12//200 202//201 201//199 
f 12//200 14//202 203//203 202//201 
f 14//202 16//204 203//203 
f 16//204 18//205 204//206 203//203 
f 18//205 20//207 204//206 
f 20//207 22//208 205//209 204//206 
f 22//208 24//210 206//211 205//209 
f 24//210 26//212 207//213 206//211 
f 26//212 28//214 208//215 207//213 
f 28//214 30//216 209//217 208//215 
f 30//216 32//218 210//219 209//217 
f 32//218 34//220 211//221 210//219 
f 34//220 36//222 212//223 211//221 
f 36//222 38//224 213//225 212//223 
f 38//224 40//226 214//227 213//225 
f 40//226 42//228 215//229 214//227 
f 42//228 44//230 216//231 215//229 
f 44//230 46//232 216//231 
f 46//232 164//233 217//234 216//231 
f 193//188 191//187 218//234 219//235 
f 193//188 219//235 216//231 217//234 
f 219//235 218//234 161//233 50//236 
f 50//236 49//237 219//235 
f 49//237 52//238 220//239 219//235 
f 52//238 54//240 221//241 220//239 
f 54//240 56//242 222//243 221//241 
f 56//242 58//244 223//245 222//243 
f 58//244 60//246 224//247 223//245 
f 60//246 4//190 198//193 224//247 
f 198//193 197//192 63//33 62//32 
f 197//192 199//195 70//40 63//33 
f 199//195 200//197 70//40 
f 200//197 201//199 70//40 
f 201//199 202//201 70//40 
f 202//201 203//203 70//40 
f 203//203 204//206 69//39 70//40 
f 204//206 205//209 69//39 
f 205//209 206//211 69//39 
f 206//211 207//213 69//39 
f 207//213 208//215 69//39 
f 208//215 209//217 68//38 69//39 
f 209//217 210//219 65//35 68//38 
f 210//219 211//221 66//36 65//35 
f 211//221 212//223 67//37 66//36 
f 212//223 213//225 67//37 
f 213//225 214//227 67//37 
f 214//227 215//229 67//37 
f 215//229 216//231 67//37 
f 216//231 219//235 64//34 67//37 
f 219//235 220//239 64//34 
f 220//239 221//241 64//34 
f 221//241 222//243 64//34 
f 222//243 223//245 64//34 
f 223//245 224//247 61//31 64//34 
f 224//247 198//193 62//32 61//31 
f 161//233 218//234 191//187 181//186 
f 164//233 171//185 193//188 217//234 
s 1
f 168//164 168//165 168//162 
f 166//162 166//174 166//161 
s 4
f 161//248 181//248 180//249 162//250 
f 163//251 172//252 171//253 164//253 
s 2
f 192//185 175//185 195//185 
f 196//185 182//185 194//185 
f 1//254 71//255 74//256 2//257 
f 2//257 74//256 76//258 5//259 
f 5//259 76//258 78//260 7//261 
f 7//261 78//260 80//262 9//263 
f 9//263 80//262 82//264 11//265 
f 11//265 82//264 84//266 13//267 
f 13//267 84//266 86//268 15//269 
f 15//269 86//268 88//270 17//271 
f 17//271 88//270 90//272 19//273 
f 19//273 90//272 92//274 21//275 
f 21//275 92//274 94//276 23//277 
f 23//277 94//276 96//278 25//279 
f 25//279 96//278 98//280 27//281 
f 27//281 98//280 100//282 29//283 
f 29//283 100//282 102//284 31//285 
f 31//285 102//284 104//286 33//287 
f 33//287 104//286 106//288 35//289 
f 35//289 106//288 108//290 37//291 
f 37//291 108//290 110//292 39//293 
f 39//293 110//292 112//294 41//295 
f 41//295 112//294 114//296 43//297 
f 43//297 114//296 116//298 45//299 
f 47//300 120//301 119//302 48//303 
f 48//303 119//302 122//304 51//305 
f 51//305 122//304 124//306 53//307 
f 53//307 124//306 126//308 55//309 
f 55//309 126//308 128//310 57//311 
f 57//311 128//310 130//312 59//313 
f 59//313 130//312 71//255 1//254 
f 162//314 166//315 120//301 47//300 
f 45//299 116//298 168//316 163//317 
s 8
f 172//318 168//319 177//320 173//321 
f 173//321 177//320 189//322 174//323 
s 4
f 174//324 189//325 195//326 175//327 
f 182//328 196//329 190//330 184//331 
s 8
f 184//332 190//333 188//334 183//335 
f 183//335 188//334 166//336 180//337 
s 4
f 168//338 172//252 163//251 168//162 
f 166//339 162//250 180//249 166//162 
# 191 polygons - 34 triangles

